<svg id="visual" viewBox="0 0 600 900" width="600" height="900" xmlns="http://www.w3.org/2000/svg" xmlns:xlink="http://www.w3.org/1999/xlink" version="1.1"><path d="M0 73L7.7 67C15.3 61 30.7 49 46 49C61.3 49 76.7 61 92 59.5C107.3 58 122.7 43 138.2 34C153.7 25 169.3 22 184.8 22C200.3 22 215.7 25 231 28C246.3 31 261.7 34 277 40C292.3 46 307.7 55 323 53.5C338.3 52 353.7 40 369 34C384.3 28 399.7 28 415.2 26.5C430.7 25 446.3 22 461.8 26.5C477.3 31 492.7 43 508 46C523.3 49 538.7 43 554 38.5C569.3 34 584.7 31 592.3 29.5L600 28L600 0L592.3 0C584.7 0 569.3 0 554 0C538.7 0 523.3 0 508 0C492.7 0 477.3 0 461.8 0C446.3 0 430.7 0 415.2 0C399.7 0 384.3 0 369 0C353.7 0 338.3 0 323 0C307.7 0 292.3 0 277 0C261.7 0 246.3 0 231 0C215.7 0 200.3 0 184.8 0C169.3 0 153.7 0 138.2 0C122.7 0 107.3 0 92 0C76.7 0 61.3 0 46 0C30.7 0 15.3 0 7.7 0L0 0Z" fill="#002e98"></path><path d="M0 181L7.7 172C15.3 163 30.7 145 46 136C61.3 127 76.7 127 92 125.5C107.3 124 122.7 121 138.2 109C153.7 97 169.3 76 184.8 77.5C200.3 79 215.7 103 231 113.5C246.3 124 261.7 121 277 122.5C292.3 124 307.7 130 323 119.5C338.3 109 353.7 82 369 76C384.3 70 399.7 85 415.2 91C430.7 97 446.3 94 461.8 95.5C477.3 97 492.7 103 508 109C523.3 115 538.7 121 554 121C569.3 121 584.7 115 592.3 112L600 109L600 26L592.3 27.5C584.7 29 569.3 32 554 36.5C538.7 41 523.3 47 508 44C492.7 41 477.3 29 461.8 24.5C446.3 20 430.7 23 415.2 24.5C399.7 26 384.3 26 369 32C353.7 38 338.3 50 323 51.5C307.7 53 292.3 44 277 38C261.7 32 246.3 29 231 26C215.7 23 200.3 20 184.8 20C169.3 20 153.7 23 138.2 32C122.7 41 107.3 56 92 57.5C76.7 59 61.3 47 46 47C30.7 47 15.3 59 7.7 65L0 71Z" fill="#3c5eb5"></path><path d="M0 298L7.7 278.5C15.3 259 30.7 220 46 200.5C61.3 181 76.7 181 92 191.5C107.3 202 122.7 223 138.2 211C153.7 199 169.3 154 184.8 140.5C200.3 127 215.7 145 231 157C246.3 169 261.7 175 277 182.5C292.3 190 307.7 199 323 208C338.3 217 353.7 226 369 230.5C384.3 235 399.7 235 415.2 239.5C430.7 244 446.3 253 461.8 242.5C477.3 232 492.7 202 508 206.5C523.3 211 538.7 250 554 247C569.3 244 584.7 199 592.3 176.5L600 154L600 107L592.3 110C584.7 113 569.3 119 554 119C538.7 119 523.3 113 508 107C492.7 101 477.3 95 461.8 93.5C446.3 92 430.7 95 415.2 89C399.7 83 384.3 68 369 74C353.7 80 338.3 107 323 117.5C307.7 128 292.3 122 277 120.5C261.7 119 246.3 122 231 111.5C215.7 101 200.3 77 184.8 75.5C169.3 74 153.7 95 138.2 107C122.7 119 107.3 122 92 123.5C76.7 125 61.3 125 46 134C30.7 143 15.3 161 7.7 170L0 179Z" fill="#6f8ecc"></path><path d="M0 325L7.7 305.5C15.3 286 30.7 247 46 235C61.3 223 76.7 238 92 256C107.3 274 122.7 295 138.2 275.5C153.7 256 169.3 196 184.8 178C200.3 160 215.7 184 231 205C246.3 226 261.7 244 277 253C292.3 262 307.7 262 323 272.5C338.3 283 353.7 304 369 302.5C384.3 301 399.7 277 415.2 275.5C430.7 274 446.3 295 461.8 293.5C477.3 292 492.7 268 508 274C523.3 280 538.7 316 554 314.5C569.3 313 584.7 274 592.3 254.5L600 235L600 152L592.3 174.5C584.7 197 569.3 242 554 245C538.7 248 523.3 209 508 204.5C492.7 200 477.3 230 461.8 240.5C446.3 251 430.7 242 415.2 237.5C399.7 233 384.3 233 369 228.5C353.7 224 338.3 215 323 206C307.7 197 292.3 188 277 180.5C261.7 173 246.3 167 231 155C215.7 143 200.3 125 184.8 138.5C169.3 152 153.7 197 138.2 209C122.7 221 107.3 200 92 189.5C76.7 179 61.3 179 46 198.5C30.7 218 15.3 257 7.7 276.5L0 296Z" fill="#a7bee0"></path><path d="M0 370L7.7 359.5C15.3 349 30.7 328 46 322C61.3 316 76.7 325 92 334C107.3 343 122.7 352 138.2 331C153.7 310 169.3 259 184.8 247C200.3 235 215.7 262 231 281.5C246.3 301 261.7 313 277 320.5C292.3 328 307.7 331 323 347.5C338.3 364 353.7 394 369 391C384.3 388 399.7 352 415.2 340C430.7 328 446.3 340 461.8 334C477.3 328 492.7 304 508 313C523.3 322 538.7 364 554 359.5C569.3 355 584.7 304 592.3 278.5L600 253L600 233L592.3 252.5C584.7 272 569.3 311 554 312.5C538.7 314 523.3 278 508 272C492.7 266 477.3 290 461.8 291.5C446.3 293 430.7 272 415.2 273.5C399.7 275 384.3 299 369 300.5C353.7 302 338.3 281 323 270.5C307.7 260 292.3 260 277 251C261.7 242 246.3 224 231 203C215.7 182 200.3 158 184.8 176C169.3 194 153.7 254 138.2 273.5C122.7 293 107.3 272 92 254C76.7 236 61.3 221 46 233C30.7 245 15.3 284 7.7 303.5L0 323Z" fill="#e8edf3"></path><path d="M0 433L7.7 451C15.3 469 30.7 505 46 508C61.3 511 76.7 481 92 463C107.3 445 122.7 439 138.2 440.5C153.7 442 169.3 451 184.8 439C200.3 427 215.7 394 231 398.5C246.3 403 261.7 445 277 473.5C292.3 502 307.7 517 323 523C338.3 529 353.7 526 369 503.5C384.3 481 399.7 439 415.2 422.5C430.7 406 446.3 415 461.8 430C477.3 445 492.7 466 508 475C523.3 484 538.7 481 554 461.5C569.3 442 584.7 406 592.3 388L600 370L600 251L592.3 276.5C584.7 302 569.3 353 554 357.5C538.7 362 523.3 320 508 311C492.7 302 477.3 326 461.8 332C446.3 338 430.7 326 415.2 338C399.7 350 384.3 386 369 389C353.7 392 338.3 362 323 345.5C307.7 329 292.3 326 277 318.5C261.7 311 246.3 299 231 279.5C215.7 260 200.3 233 184.8 245C169.3 257 153.7 308 138.2 329C122.7 350 107.3 341 92 332C76.7 323 61.3 314 46 320C30.7 326 15.3 347 7.7 357.5L0 368Z" fill="#e8edf3"></path><path d="M0 487L7.7 499C15.3 511 30.7 535 46 533.5C61.3 532 76.7 505 92 494.5C107.3 484 122.7 490 138.2 497.5C153.7 505 169.3 514 184.8 499C200.3 484 215.7 445 231 448C246.3 451 261.7 496 277 524.5C292.3 553 307.7 565 323 565C338.3 565 353.7 553 369 529C384.3 505 399.7 469 415.2 455.5C430.7 442 446.3 451 461.8 463C477.3 475 492.7 490 508 503.5C523.3 517 538.7 529 554 515.5C569.3 502 584.7 463 592.3 443.5L600 424L600 368L592.3 386C584.7 404 569.3 440 554 459.5C538.7 479 523.3 482 508 473C492.7 464 477.3 443 461.8 428C446.3 413 430.7 404 415.2 420.5C399.7 437 384.3 479 369 501.5C353.7 524 338.3 527 323 521C307.7 515 292.3 500 277 471.5C261.7 443 246.3 401 231 396.5C215.7 392 200.3 425 184.8 437C169.3 449 153.7 440 138.2 438.5C122.7 437 107.3 443 92 461C76.7 479 61.3 509 46 506C30.7 503 15.3 467 7.7 449L0 431Z" fill="#e8edf3"></path><path d="M0 766L7.7 763C15.3 760 30.7 754 46 763C61.3 772 76.7 796 92 800.5C107.3 805 122.7 790 138.2 776.5C153.7 763 169.3 751 184.8 734.5C200.3 718 215.7 697 231 692.5C246.3 688 261.7 700 277 707.5C292.3 715 307.7 718 323 727C338.3 736 353.7 751 369 740.5C384.3 730 399.7 694 415.2 686.5C430.7 679 446.3 700 461.8 704.5C477.3 709 492.7 697 508 703C523.3 709 538.7 733 554 734.5C569.3 736 584.7 715 592.3 704.5L600 694L600 422L592.3 441.5C584.7 461 569.3 500 554 513.5C538.7 527 523.3 515 508 501.5C492.7 488 477.3 473 461.8 461C446.3 449 430.7 440 415.2 453.5C399.7 467 384.3 503 369 527C353.7 551 338.3 563 323 563C307.7 563 292.3 551 277 522.5C261.7 494 246.3 449 231 446C215.7 443 200.3 482 184.8 497C169.3 512 153.7 503 138.2 495.5C122.7 488 107.3 482 92 492.5C76.7 503 61.3 530 46 531.5C30.7 533 15.3 509 7.7 497L0 485Z" fill="#a7bee0"></path><path d="M0 793L7.7 794.5C15.3 796 30.7 799 46 806.5C61.3 814 76.7 826 92 824.5C107.3 823 122.7 808 138.2 794.5C153.7 781 169.3 769 184.8 755.5C200.3 742 215.7 727 231 724C246.3 721 261.7 730 277 740.5C292.3 751 307.7 763 323 775C338.3 787 353.7 799 369 790C384.3 781 399.7 751 415.2 742C430.7 733 446.3 745 461.8 749.5C477.3 754 492.7 751 508 760C523.3 769 538.7 790 554 791.5C569.3 793 584.7 775 592.3 766L600 757L600 692L592.3 702.5C584.7 713 569.3 734 554 732.5C538.7 731 523.3 707 508 701C492.7 695 477.3 707 461.8 702.5C446.3 698 430.7 677 415.2 684.5C399.7 692 384.3 728 369 738.5C353.7 749 338.3 734 323 725C307.7 716 292.3 713 277 705.5C261.7 698 246.3 686 231 690.5C215.7 695 200.3 716 184.8 732.5C169.3 749 153.7 761 138.2 774.5C122.7 788 107.3 803 92 798.5C76.7 794 61.3 770 46 761C30.7 752 15.3 758 7.7 761L0 764Z" fill="#6f8ecc"></path><path d="M0 847L7.7 844C15.3 841 30.7 835 46 836.5C61.3 838 76.7 847 92 844C107.3 841 122.7 826 138.2 817C153.7 808 169.3 805 184.8 800.5C200.3 796 215.7 790 231 791.5C246.3 793 261.7 802 277 809.5C292.3 817 307.7 823 323 827.5C338.3 832 353.7 835 369 823C384.3 811 399.7 784 415.2 778C430.7 772 446.3 787 461.8 793C477.3 799 492.7 796 508 805C523.3 814 538.7 835 554 835C569.3 835 584.7 814 592.3 803.5L600 793L600 755L592.3 764C584.7 773 569.3 791 554 789.5C538.7 788 523.3 767 508 758C492.7 749 477.3 752 461.8 747.5C446.3 743 430.7 731 415.2 740C399.7 749 384.3 779 369 788C353.7 797 338.3 785 323 773C307.7 761 292.3 749 277 738.5C261.7 728 246.3 719 231 722C215.7 725 200.3 740 184.8 753.5C169.3 767 153.7 779 138.2 792.5C122.7 806 107.3 821 92 822.5C76.7 824 61.3 812 46 804.5C30.7 797 15.3 794 7.7 792.5L0 791Z" fill="#3c5eb5"></path><path d="M0 901L7.7 901C15.3 901 30.7 901 46 901C61.3 901 76.7 901 92 901C107.3 901 122.7 901 138.2 901C153.7 901 169.3 901 184.8 901C200.3 901 215.7 901 231 901C246.3 901 261.7 901 277 901C292.3 901 307.7 901 323 901C338.3 901 353.7 901 369 901C384.3 901 399.7 901 415.2 901C430.7 901 446.3 901 461.8 901C477.3 901 492.7 901 508 901C523.3 901 538.7 901 554 901C569.3 901 584.7 901 592.3 901L600 901L600 791L592.3 801.5C584.7 812 569.3 833 554 833C538.7 833 523.3 812 508 803C492.7 794 477.3 797 461.8 791C446.3 785 430.7 770 415.2 776C399.7 782 384.3 809 369 821C353.7 833 338.3 830 323 825.5C307.7 821 292.3 815 277 807.5C261.7 800 246.3 791 231 789.5C215.7 788 200.3 794 184.8 798.5C169.3 803 153.7 806 138.2 815C122.7 824 107.3 839 92 842C76.7 845 61.3 836 46 834.5C30.7 833 15.3 839 7.7 842L0 845Z" fill="#002e98"></path></svg>